<svg id="Capa_1" data-name="Capa 1" xmlns="http://www.w3.org/2000/svg" viewBox="0 0 3061.42 3061.42">
    <defs>
        <style>.cls-1{fill:#fff;}</style>
    </defs>
    <path class="cls-1" d="M2902.68,1780.61,2564.19,938.18c-25.83-64.29-74.4-111.74-136.76-133.58-61.93-21.66-129.67-15-189.53,19.27-42.49,24.32-76.15,59.69-99.21,100.83l-.21-.44c-30.83-65.94-84.43-113.86-150.91-134.91s-137.88-12.71-201,23.47c-52.83,30.24-94.61,76.94-120.25,133.65l-10.5-22.55c-30-64.45-82.24-111.3-147.13-131.92l-.23-.07c-64.82-20.53-134.44-12.4-196,22.87l-4.79,2.75c-53,30.34-94.88,77-120.62,133.52l-168.46-361c-31.23-66.92-85.56-115.56-153-136.94l-.11,0C798,431.76,725.65,440.21,661.6,476.88l-5,2.88C520.72,557.56,463.91,735.75,530,877c167.33,357.89,502.5,1076.48,623.71,1336.41l-533.44-87.28c-158-25.85-319.73,51.74-412,197.66-35.55,56.22-44.9,124.08-25.68,186.18s64,108.39,122.66,127L1514,3019.65c254.53,80.59,537.35,43.45,775.91-101.89l295.94-180.29C2901.73,2545,3040.93,2124.69,2902.68,1780.61Zm-364.09,862.66-296,180.29c-213.84,130.29-467.35,163.58-695.52,91.34L338.37,2532.17c-28.17-8.92-49.62-31.12-58.86-60.92s-4.73-62.37,12.32-89.34c69.05-109.2,190.08-167.26,308.33-147.91l735.33,120.3-45.07-96.64S828.15,1266.28,621.58,824.51C580.22,736,616,624.29,701.31,575.43l5-2.88c39.58-22.66,84.29-27.87,125.92-14.69l.07,0c41.66,13.21,75.22,43.25,94.52,84.6l251.07,538q3.71,9.72,8.16,19.19c89.26,190.14,210.12,448.58,210.14,448.59l91.65-52.44-216.4-463.74c-13.08-36.43-13.7-76.83-1.51-115.41,14-44.33,43.26-81.09,82.37-103.49l4.79-2.74c37.14-21.26,79.07-26.16,118.14-13.79l.15.05c39.08,12.42,70.57,40.65,88.65,79.49l95.18,204.48q2.91,7.27,6.26,14.41l96.6,206.57.12.26,91.68-52.39L1752.35,1131.4c-14.47-37.67-15.53-79.8-2.81-120,14-44.22,43-80.78,81.73-102.94s82.42-27.26,123.13-14.37c40.39,12.78,73,41.75,92,81.62l71.48,172.62q2.63,7.47,5.7,14.84l30.7,73.08,93.47-48.35-34.94-84.4c-22.7-68.76,6.54-147.73,69.86-184,34.4-19.7,72.93-23.69,109-11.07,35.84,12.56,63.75,39.83,78.6,76.78l338.48,842.43C2926.52,2121,2807.88,2479.22,2538.59,2643.27Z"/>
    <path class="cls-1" d="M226.92,580.9c38.93-156.6,131.86-290.5,261.69-377,268-178.64,611.64-97.31,766,181.22,49.6,89.49,75.52,192.62,75,298.23l102-4.58c.66-124.89-30-246.81-88.58-352.55C1160.54-3,754.43-99.1,437.7,112,284.28,214.28,174.45,372.53,128.44,557.6s-22.65,374.83,65.72,534.3c41.45,74.79,95,139,159.27,190.82l63.83-88.25c-54.3-43.81-99.63-98.14-134.73-161.47C207.75,898.07,188,737.51,226.92,580.9Z"/>
</svg>