<svg id="Capa_10" data-name="Capa 10" xmlns="http://www.w3.org/2000/svg" viewBox="0 0 487.05 486.21"><defs><style>.cls-1{fill:#cc9f53;}.cls-2{fill:none;}.cls-3{fill:#357039;}</style></defs><path class="cls-1" d="M209,95A70.14,70.14,0,0,0,235.46,0,242.83,242.83,0,0,0,160.2,14.47c-.3,4.89-.47,9.8-.47,14.76a240.49,240.49,0,0,0,5.78,52.46q2.56,11.48,6.2,22.5,3.16,9.66,7.12,18.94a102.09,102.09,0,0,1,30-28Z"/><path class="cls-1" d="M297.86,121.68l-.28-.16A111.55,111.55,0,0,0,367,33.5,241.86,241.86,0,0,0,270.19,1.32a101.47,101.47,0,0,1-48.33,122.33l.33.1a70.4,70.4,0,0,0-22.42,24.93,68.1,68.1,0,0,0-3.54,7.71,241,241,0,0,0,32.66,41.26,143.12,143.12,0,0,1,69-76Z"/><path class="cls-1" d="M347.11,221.62a238.11,238.11,0,0,0-31.71,90,143.34,143.34,0,0,1,46.72-43.41,141.82,141.82,0,0,1,63.78-18.88l.71,0a110.82,110.82,0,0,0,60.44-21.75A242.14,242.14,0,0,0,457.61,124.7,240.59,240.59,0,0,0,347.11,221.62Z"/><path class="cls-1" d="M427.51,280.55a111.35,111.35,0,0,0-80.33,181.66A242.9,242.9,0,0,0,486.36,264.74a141.79,141.79,0,0,1-58.14,15.78Z"/><path class="cls-1" d="M139.93,221.62a236.94,236.94,0,0,1,14.62,28.56,237.75,237.75,0,0,1,17.09,61.4,143.31,143.31,0,0,0-46.71-43.41,141.82,141.82,0,0,0-63.78-18.88l-.71,0A110.79,110.79,0,0,1,0,227.51,242.14,242.14,0,0,1,29.44,124.7,240.57,240.57,0,0,1,139.93,221.62Z"/><path class="cls-1" d="M59.53,280.55a111.35,111.35,0,0,1,80.34,181.66A243.92,243.92,0,0,1,4.75,291.68,240.85,240.85,0,0,1,.68,264.74a141.84,141.84,0,0,0,58.15,15.78Z"/><path class="cls-2" d="M259,291.29a1.42,1.42,0,0,1,.08.18c0-.12-.1-.23-.14-.34Z"/><path class="cls-2" d="M259,291.29a1.42,1.42,0,0,1,.08.18c0-.12-.1-.23-.14-.34Z"/><path class="cls-1" d="M395.11,52.82a142.17,142.17,0,0,1-26.67,53.83,143.19,143.19,0,0,1-20.83,21.23A142.5,142.5,0,0,1,324,143.69a111.44,111.44,0,0,0-65.18,147.15c-.14-.33-.27-.65-.4-1l-.24-.59h0l0,0c.59,1.47,1.16,3,1.7,4.45a142.08,142.08,0,0,1,8,36.31A236.12,236.12,0,0,1,271,368.31a234.11,234.11,0,0,1-16.36,86.27,234.17,234.17,0,0,1-14.05,31.59c.92,0,1.84,0,2.76,0a243.48,243.48,0,0,0,71-10.52,269.5,269.5,0,0,1-32.31-109q-.78-10.37-.79-20.92,0-10,.72-19.77a269.35,269.35,0,0,1,17.78-78.76l.28.13c1.31-3.31,2.69-6.58,4.11-9.83a270.75,270.75,0,0,1,55.6-81.7Q368.53,147,378.1,139a270.36,270.36,0,0,1,62-39.21A245,245,0,0,0,395.11,52.82ZM259,291.29l-.06-.16c0,.11.1.22.14.34A1.42,1.42,0,0,0,259,291.29Z"/><path class="cls-3" d="M185.61,196.06q2.89,3.54,5.91,7Q188.63,199.5,185.61,196.06Z"/><path class="cls-1" d="M191.52,203.05q-3-3.45-5.91-7a269.81,269.81,0,0,1-61-169.93A244.56,244.56,0,0,0,45.27,94.87a271.21,271.21,0,0,1,70.46,46.84,271.15,271.15,0,0,1,74.86,116.91,270.69,270.69,0,0,1,12.87,82.7,269.64,269.64,0,0,1-34.2,131.84l2.36.71a242.79,242.79,0,0,0,33.19,7.3,233.81,233.81,0,0,0,39.26-130A233.94,233.94,0,0,0,191.52,203.05Z"/></svg>