<svg id="Capa_10" data-name="Capa 10" xmlns="http://www.w3.org/2000/svg" viewBox="0 0 295.04 156.15"><defs><style>.cls-1{fill:#00263a;}.cls-2{fill:#cc9f53;}.cls-3{fill:none;}.cls-4{fill:#357039;}</style></defs><path class="cls-1" d="M30.22,132.85c0,8.56-2.47,11.61-9.06,11.61-7.33,0-9.55-2.55-9.55-11.61V98.44H0v34.41c0,15.4,7.16,23.3,21.16,23.3,13.34,0,20.75-8.32,20.75-23.3l0-4-11.57-5.24Z"/><path class="cls-1" d="M136.47,128.73,117.29,98.6H131.2l12.6,20a399.54,399.54,0,0,1,25-31.21l8.32,8.32c-14,15.23-36.15,46.52-45.86,60.43h-14C119.68,152.45,127.25,141.66,136.47,128.73Zm8.65,12.68c1.56-2.22,4.2-5.92,7.24-10,7.66,11.28,13.18,18.36,18.28,24.78H156C152,150.8,149.48,147.83,145.12,141.41Z"/><path class="cls-1" d="M200.79,156.15H190.05a.76.76,0,0,1-.72-1l20-56a.75.75,0,0,1,.71-.5h9.55a.75.75,0,0,1,.71.5l10.45,29.39a56.67,56.67,0,0,1-11.86,1.07l-4-11.12L201.5,155.65A.75.75,0,0,1,200.79,156.15Z"/><path class="cls-1" d="M235.08,140.51l5.26,14.7a.7.7,0,0,1-.66.94H228.83a.71.71,0,0,1-.67-.47l-4.94-13.86Z"/><path class="cls-1" d="M95.48,129.56a56.67,56.67,0,0,1-11.86-1.07l-4-10.05L66.27,155.65a.77.77,0,0,1-.72.5H54.81a.75.75,0,0,1-.71-1l20-56a.75.75,0,0,1,.71-.5h9.55a.77.77,0,0,1,.72.5Z"/><path class="cls-1" d="M105.1,155.21a.7.7,0,0,1-.66.94H93.59a.71.71,0,0,1-.67-.47L88,140.51l11.85,1.31Z"/><path class="cls-2" d="M30.22,99.28l.06,14a67.38,67.38,0,0,0,11.61,5.54l.27-17.88a.72.72,0,0,0-.61-.72l-10.5-1.64A.71.71,0,0,0,30.22,99.28Z"/><path class="cls-1" d="M295,122.14l-11.57,5.24L283,132.6l-.15-.3-18.1-33.14a1.09,1.09,0,0,0-.94-.56H253.61a1.08,1.08,0,0,0-1.08,1.08v55.39a1.08,1.08,0,0,0,1.08,1.08h9.45a1.08,1.08,0,0,0,1.08-1.08V122.15l18.13,33.44a1.09,1.09,0,0,0,1,.56h10.3A1.13,1.13,0,0,0,294,156a1.09,1.09,0,0,0,.6-1l.21-20.7v-2.09Z"/><path class="cls-2" d="M294.81,99.28l-.06,12.85a68.11,68.11,0,0,1-11.61,5.55l-.27-16.75a.71.71,0,0,1,.61-.72L294,98.57A.72.72,0,0,1,294.81,99.28Z"/><path class="cls-2" d="M142.55,15.65A11.57,11.57,0,0,0,146.92,0a39.86,39.86,0,0,0-12.41,2.39c0,.8-.07,1.61-.07,2.43a39.65,39.65,0,0,0,.95,8.64,38.29,38.29,0,0,0,1,3.71q.53,1.59,1.17,3.12a16.07,16.07,0,0,1,2.13-2.45,16.6,16.6,0,0,1,2.83-2.17Z"/><path class="cls-2" d="M157.2,20.05l0,0A18.18,18.18,0,0,0,162,17.18,18.36,18.36,0,0,0,168.6,5.52a39.83,39.83,0,0,0-16-5.3,16.8,16.8,0,0,1-.94,13,16.83,16.83,0,0,1-7,7.13l0,0A11.69,11.69,0,0,0,141,24.5a11.22,11.22,0,0,0-.58,1.27,39.74,39.74,0,0,0,5.38,6.8A23.63,23.63,0,0,1,157.2,20.05Z"/><path class="cls-2" d="M165.31,36.52a40,40,0,0,0-2.41,4.7,39.52,39.52,0,0,0-2.81,10.12A23.51,23.51,0,0,1,178.3,41.08h.11a18.21,18.21,0,0,0,10-3.58,39.81,39.81,0,0,0-4.85-16.94A39.68,39.68,0,0,0,165.31,36.52Z"/><path class="cls-2" d="M178.56,46.23a18.35,18.35,0,0,0-13.24,29.93,40,40,0,0,0,22.94-32.54,23.12,23.12,0,0,1-9.58,2.6Z"/><path class="cls-2" d="M131.18,36.52a39.94,39.94,0,0,1,2.4,4.7,39.13,39.13,0,0,1,2.82,10.12,23.51,23.51,0,0,0-18.21-10.26h-.11a18.18,18.18,0,0,1-10-3.58A39.81,39.81,0,0,1,113,20.55,39.68,39.68,0,0,1,131.18,36.52Z"/><path class="cls-2" d="M117.93,46.23a18.35,18.35,0,0,1,13.23,29.93,40,40,0,0,1-22.93-32.54,23.12,23.12,0,0,0,9.58,2.6Z"/><path class="cls-3" d="M150.8,48v0l0-.06Z"/><path class="cls-3" d="M150.8,48v0l0-.06Z"/><path class="cls-2" d="M173.22,8.7a23.52,23.52,0,0,1-4.39,8.87,23.17,23.17,0,0,1-3.43,3.5,23.82,23.82,0,0,1-3.89,2.61,18.35,18.35,0,0,0-10.74,24.24l-.06-.16,0-.09h0c.1.24.19.48.28.73a23.29,23.29,0,0,1,1.32,6,38.76,38.76,0,0,1-2.18,20.54,38.42,38.42,0,0,1-2.31,5.2h.45a40,40,0,0,0,11.7-1.74,44.38,44.38,0,0,1-5.33-17.95c-.08-1.14-.13-2.29-.13-3.45s0-2.18.12-3.26a44.46,44.46,0,0,1,2.93-13l.05,0c.21-.55.44-1.09.68-1.62a43.84,43.84,0,0,1,4.48-7.9,44.38,44.38,0,0,1,4.68-5.57c1-1,2-1.9,3-2.78a44.6,44.6,0,0,1,10.22-6.46A40.31,40.31,0,0,0,173.22,8.7ZM150.8,48v0l0,.06Z"/><path class="cls-4" d="M138.7,32.31c.32.39.64.77,1,1.15C139.36,33.07,139,32.68,138.7,32.31Z"/><path class="cls-2" d="M139.67,33.46c-.33-.38-.65-.76-1-1.15a44.51,44.51,0,0,1-10.06-28,40.29,40.29,0,0,0-13.06,11.32A44.69,44.69,0,0,1,136,78l.39.11a39.61,39.61,0,0,0,5.46,1.21,38.71,38.71,0,0,0-2.19-45.83Z"/></svg>